<?xml version="1.0" encoding="UTF-8"?>
<svg xmlns="http://www.w3.org/2000/svg" xmlns:xlink="http://www.w3.org/1999/xlink" fill-opacity="1" color-rendering="auto" color-interpolation="auto" stroke="black" text-rendering="auto" stroke-linecap="square" width="465" stroke-miterlimit="10" stroke-opacity="1" shape-rendering="auto" fill="black" stroke-dasharray="none" font-weight="normal" stroke-width="1" height="1268" font-family="'Dialog'" font-style="normal" stroke-linejoin="miter" font-size="12" stroke-dashoffset="0" image-rendering="auto">
  <!--Generated by ySVG-->
  <defs id="genericDefs"/>
  <g>
    <defs id="defs1">
      <linearGradient x1="257" gradientUnits="userSpaceOnUse" x2="520" y1="-0.5" y2="56.5" id="linearGradient1" spreadMethod="pad">
        <stop stop-opacity="1" stop-color="rgb(232,238,247)" offset="0%"/>
        <stop stop-opacity="1" stop-color="rgb(183,201,227)" offset="100%"/>
      </linearGradient>
      <linearGradient x1="257" gradientUnits="userSpaceOnUse" x2="520" y1="86.5" y2="154.5" id="linearGradient2" spreadMethod="pad">
        <stop stop-opacity="1" stop-color="rgb(232,238,247)" offset="0%"/>
        <stop stop-opacity="1" stop-color="rgb(183,201,227)" offset="100%"/>
      </linearGradient>
      <linearGradient x1="257" gradientUnits="userSpaceOnUse" x2="520" y1="224.0536" y2="281.0536" id="linearGradient3" spreadMethod="pad">
        <stop stop-opacity="1" stop-color="rgb(232,238,247)" offset="0%"/>
        <stop stop-opacity="1" stop-color="rgb(183,201,227)" offset="100%"/>
      </linearGradient>
      <linearGradient x1="257" gradientUnits="userSpaceOnUse" x2="520" y1="414.5" y2="471.5" id="linearGradient4" spreadMethod="pad">
        <stop stop-opacity="1" stop-color="rgb(232,238,247)" offset="0%"/>
        <stop stop-opacity="1" stop-color="rgb(183,201,227)" offset="100%"/>
      </linearGradient>
      <linearGradient x1="348.5" gradientUnits="userSpaceOnUse" x2="428.5" y1="306.8531" y2="346.8531" id="linearGradient5" spreadMethod="pad">
        <stop stop-opacity="1" stop-color="rgb(232,238,247)" offset="0%"/>
        <stop stop-opacity="1" stop-color="rgb(183,201,227)" offset="100%"/>
      </linearGradient>
      <linearGradient x1="348.5" gradientUnits="userSpaceOnUse" x2="428.5" y1="492.6" y2="532.6" id="linearGradient6" spreadMethod="pad">
        <stop stop-opacity="1" stop-color="rgb(232,238,247)" offset="0%"/>
        <stop stop-opacity="1" stop-color="rgb(183,201,227)" offset="100%"/>
      </linearGradient>
      <linearGradient x1="257" gradientUnits="userSpaceOnUse" x2="520" y1="598.5" y2="655.5" id="linearGradient7" spreadMethod="pad">
        <stop stop-opacity="1" stop-color="rgb(232,238,247)" offset="0%"/>
        <stop stop-opacity="1" stop-color="rgb(183,201,227)" offset="100%"/>
      </linearGradient>
      <linearGradient x1="348.5" gradientUnits="userSpaceOnUse" x2="428.5" y1="675.7266" y2="715.7266" id="linearGradient8" spreadMethod="pad">
        <stop stop-opacity="1" stop-color="rgb(232,238,247)" offset="0%"/>
        <stop stop-opacity="1" stop-color="rgb(183,201,227)" offset="100%"/>
      </linearGradient>
      <linearGradient x1="257" gradientUnits="userSpaceOnUse" x2="520" y1="795.8333" y2="852.8333" id="linearGradient9" spreadMethod="pad">
        <stop stop-opacity="1" stop-color="rgb(232,238,247)" offset="0%"/>
        <stop stop-opacity="1" stop-color="rgb(183,201,227)" offset="100%"/>
      </linearGradient>
      <linearGradient x1="348.5" gradientUnits="userSpaceOnUse" x2="428.5" y1="882.8333" y2="922.8333" id="linearGradient10" spreadMethod="pad">
        <stop stop-opacity="1" stop-color="rgb(232,238,247)" offset="0%"/>
        <stop stop-opacity="1" stop-color="rgb(183,201,227)" offset="100%"/>
      </linearGradient>
      <linearGradient x1="257" gradientUnits="userSpaceOnUse" x2="520" y1="952.8333" y2="1009.8333" id="linearGradient11" spreadMethod="pad">
        <stop stop-opacity="1" stop-color="rgb(232,238,247)" offset="0%"/>
        <stop stop-opacity="1" stop-color="rgb(183,201,227)" offset="100%"/>
      </linearGradient>
      <linearGradient x1="363.0532" gradientUnits="userSpaceOnUse" x2="413.9468" y1="367.9532" y2="393.3999" id="linearGradient12" spreadMethod="pad">
        <stop stop-opacity="1" stop-color="rgb(232,238,247)" offset="0%"/>
        <stop stop-opacity="1" stop-color="rgb(183,201,227)" offset="100%"/>
      </linearGradient>
      <linearGradient x1="363.0532" gradientUnits="userSpaceOnUse" x2="413.9468" y1="179.1526" y2="204.5994" id="linearGradient13" spreadMethod="pad">
        <stop stop-opacity="1" stop-color="rgb(232,238,247)" offset="0%"/>
        <stop stop-opacity="1" stop-color="rgb(183,201,227)" offset="100%"/>
      </linearGradient>
      <linearGradient x1="363.0532" gradientUnits="userSpaceOnUse" x2="413.9468" y1="552.8267" y2="578.2734" id="linearGradient14" spreadMethod="pad">
        <stop stop-opacity="1" stop-color="rgb(232,238,247)" offset="0%"/>
        <stop stop-opacity="1" stop-color="rgb(183,201,227)" offset="100%"/>
      </linearGradient>
      <linearGradient x1="363.0532" gradientUnits="userSpaceOnUse" x2="413.9468" y1="743.0566" y2="768.5034" id="linearGradient15" spreadMethod="pad">
        <stop stop-opacity="1" stop-color="rgb(232,238,247)" offset="0%"/>
        <stop stop-opacity="1" stop-color="rgb(183,201,227)" offset="100%"/>
      </linearGradient>
      <linearGradient x1="348.5" gradientUnits="userSpaceOnUse" x2="428.5" y1="-78.252" y2="-38.252" id="linearGradient16" spreadMethod="pad">
        <stop stop-opacity="1" stop-color="rgb(232,238,247)" offset="0%"/>
        <stop stop-opacity="1" stop-color="rgb(183,201,227)" offset="100%"/>
      </linearGradient>
      <linearGradient x1="348.5" gradientUnits="userSpaceOnUse" x2="428.5" y1="1118.2301" y2="1158.2301" id="linearGradient17" spreadMethod="pad">
        <stop stop-opacity="1" stop-color="rgb(232,238,247)" offset="0%"/>
        <stop stop-opacity="1" stop-color="rgb(183,201,227)" offset="100%"/>
      </linearGradient>
      <clipPath clipPathUnits="userSpaceOnUse" id="clipPath1">
        <path d="M0 0 L465 0 L465 1268 L0 1268 L0 0 Z"/>
      </clipPath>
      <clipPath clipPathUnits="userSpaceOnUse" id="clipPath2">
        <path d="M177 -94 L642 -94 L642 1174 L177 1174 L177 -94 Z"/>
      </clipPath>
    </defs>
    <g fill="white" transform="translate(-177,94)" stroke="white">
      <rect x="177" width="465" height="1268" y="-94" clip-path="url(#clipPath2)" stroke="none"/>
    </g>
    <g fill="url(#linearGradient1)" stroke-miterlimit="1.45" transform="matrix(1,0,0,1,-177,94)" stroke-linecap="butt" stroke="url(#linearGradient1)">
      <path d="M257 -0.5 L520 -0.5 L520 56.5 L257 56.5 Z" clip-path="url(#clipPath2)" stroke="none"/>
      <path fill="none" d="M257 -0.5 L520 -0.5 L520 56.5 L257 56.5 Z" clip-path="url(#clipPath2)" stroke="black"/>
      <text x="322.7988" y="32.7139" clip-path="url(#clipPath2)" fill="black" font-family="sans-serif" stroke="none" xml:space="preserve">create reference_iterator</text>
    </g>
    <g fill="url(#linearGradient2)" stroke-miterlimit="1.45" transform="matrix(1,0,0,1,-177,94)" stroke-linecap="butt" stroke="url(#linearGradient2)">
      <path d="M257 86.5 L520 86.5 L520 154.5 L257 154.5 Z" clip-path="url(#clipPath2)" stroke="none"/>
      <path fill="none" d="M257 86.5 L520 86.5 L520 154.5 L257 154.5 Z" clip-path="url(#clipPath2)" stroke="black"/>
      <text x="293.7803" y="125.2139" clip-path="url(#clipPath2)" fill="black" font-family="sans-serif" stroke="none" xml:space="preserve">add placments to reference_iterator</text>
    </g>
    <g fill="url(#linearGradient3)" stroke-miterlimit="1.45" transform="matrix(1,0,0,1,-177,94)" stroke-linecap="butt" stroke="url(#linearGradient3)">
      <path d="M257 224.0536 L520 224.0536 L520 281.0536 L257 281.0536 Z" clip-path="url(#clipPath2)" stroke="none"/>
      <path fill="none" d="M257 224.0536 L520 224.0536 L520 281.0536 L257 281.0536 Z" clip-path="url(#clipPath2)" stroke="black"/>
      <text x="348.4746" y="257.2675" clip-path="url(#clipPath2)" fill="black" font-family="sans-serif" stroke="none" xml:space="preserve">next_reference</text>
    </g>
    <g fill="url(#linearGradient4)" stroke-miterlimit="1.45" transform="matrix(1,0,0,1,-177,94)" stroke-linecap="butt" stroke="url(#linearGradient4)">
      <path d="M257 414.5 L520 414.5 L520 471.5 L257 471.5 Z" clip-path="url(#clipPath2)" stroke="none"/>
      <path fill="none" d="M257 414.5 L520 414.5 L520 471.5 L257 471.5 Z" clip-path="url(#clipPath2)" stroke="black"/>
      <text x="353.8125" y="447.7139" clip-path="url(#clipPath2)" fill="black" font-family="sans-serif" stroke="none" xml:space="preserve">next_window</text>
    </g>
    <g fill="url(#linearGradient5)" stroke-miterlimit="1.45" transform="matrix(1,0,0,1,-177,94)" stroke-linecap="butt" stroke="url(#linearGradient5)">
      <path d="M388.5 306.8531 L428.5 326.8531 L388.5 346.8531 L348.5 326.8531 Z" clip-path="url(#clipPath2)" stroke="none"/>
      <path fill="none" d="M388.5 306.8531 L428.5 326.8531 L388.5 346.8531 L348.5 326.8531 Z" clip-path="url(#clipPath2)" stroke="black"/>
      <text x="371.8154" y="331.567" clip-path="url(#clipPath2)" fill="black" font-family="sans-serif" stroke="none" xml:space="preserve">done?</text>
    </g>
    <g fill="url(#linearGradient6)" stroke-miterlimit="1.45" transform="matrix(1,0,0,1,-177,94)" stroke-linecap="butt" stroke="url(#linearGradient6)">
      <path d="M388.5 492.6 L428.5 512.6 L388.5 532.6 L348.5 512.6 Z" clip-path="url(#clipPath2)" stroke="none"/>
      <path fill="none" d="M388.5 492.6 L428.5 512.6 L388.5 532.6 L348.5 512.6 Z" clip-path="url(#clipPath2)" stroke="black"/>
      <text x="371.8154" y="517.3139" clip-path="url(#clipPath2)" fill="black" font-family="sans-serif" stroke="none" xml:space="preserve">done?</text>
    </g>
    <g fill="url(#linearGradient7)" stroke-miterlimit="1.45" transform="matrix(1,0,0,1,-177,94)" stroke-linecap="butt" stroke="url(#linearGradient7)">
      <path d="M257 598.5 L520 598.5 L520 655.5 L257 655.5 Z" clip-path="url(#clipPath2)" stroke="none"/>
      <path fill="none" d="M257 598.5 L520 598.5 L520 655.5 L257 655.5 Z" clip-path="url(#clipPath2)" stroke="black"/>
      <text x="353.1416" y="631.7139" clip-path="url(#clipPath2)" fill="black" font-family="sans-serif" stroke="none" xml:space="preserve">next_position</text>
    </g>
    <g fill="url(#linearGradient8)" stroke-miterlimit="1.45" transform="matrix(1,0,0,1,-177,94)" stroke-linecap="butt" stroke="url(#linearGradient8)">
      <path d="M388.5 675.7266 L428.5 695.7266 L388.5 715.7266 L348.5 695.7266 Z" clip-path="url(#clipPath2)" stroke="none"/>
      <path fill="none" d="M388.5 675.7266 L428.5 695.7266 L388.5 715.7266 L348.5 695.7266 Z" clip-path="url(#clipPath2)" stroke="black"/>
      <text x="371.8154" y="700.4404" clip-path="url(#clipPath2)" fill="black" font-family="sans-serif" stroke="none" xml:space="preserve">done?</text>
    </g>
    <g fill="url(#linearGradient9)" stroke-miterlimit="1.45" transform="matrix(1,0,0,1,-177,94)" stroke-linecap="butt" stroke="url(#linearGradient9)">
      <path d="M257 795.8333 L520 795.8333 L520 852.8333 L257 852.8333 Z" clip-path="url(#clipPath2)" stroke="none"/>
      <path fill="none" d="M257 795.8333 L520 795.8333 L520 852.8333 L257 852.8333 Z" clip-path="url(#clipPath2)" stroke="black"/>
      <text x="346.1396" y="829.0472" clip-path="url(#clipPath2)" fill="black" font-family="sans-serif" stroke="none" xml:space="preserve">next_placement</text>
    </g>
    <g fill="url(#linearGradient10)" stroke-miterlimit="1.45" transform="matrix(1,0,0,1,-177,94)" stroke-linecap="butt" stroke="url(#linearGradient10)">
      <path d="M388.5 882.8333 L428.5 902.8333 L388.5 922.8333 L348.5 902.8333 Z" clip-path="url(#clipPath2)" stroke="none"/>
      <path fill="none" d="M388.5 882.8333 L428.5 902.8333 L388.5 922.8333 L348.5 902.8333 Z" clip-path="url(#clipPath2)" stroke="black"/>
      <text x="371.8154" y="907.5472" clip-path="url(#clipPath2)" fill="black" font-family="sans-serif" stroke="none" xml:space="preserve">done?</text>
    </g>
    <g fill="url(#linearGradient11)" stroke-miterlimit="1.45" transform="matrix(1,0,0,1,-177,94)" stroke-linecap="butt" stroke="url(#linearGradient11)">
      <path d="M257 952.8333 L520 952.8333 L520 1009.8333 L257 1009.8333 Z" clip-path="url(#clipPath2)" stroke="none"/>
      <path fill="none" d="M257 952.8333 L520 952.8333 L520 1009.8333 L257 1009.8333 Z" clip-path="url(#clipPath2)" stroke="black"/>
      <text x="341.1328" y="986.0472" clip-path="url(#clipPath2)" fill="black" font-family="sans-serif" stroke="none" xml:space="preserve">handle placement</text>
    </g>
    <g fill="url(#linearGradient12)" stroke-miterlimit="1.45" transform="matrix(1,0,0,1,-177,94)" stroke-linecap="butt" stroke="url(#linearGradient12)">
      <circle r="12.7234" clip-path="url(#clipPath2)" cx="388.5" cy="380.6766" stroke="none"/>
      <circle fill="none" r="12.7234" clip-path="url(#clipPath2)" cx="388.5" cy="380.6766" stroke="black"/>
      <text x="384.9961" y="385.3904" clip-path="url(#clipPath2)" fill="black" font-family="sans-serif" stroke="none" xml:space="preserve">+</text>
    </g>
    <g fill="url(#linearGradient13)" stroke-miterlimit="1.45" transform="matrix(1,0,0,1,-177,94)" stroke-linecap="butt" stroke="url(#linearGradient13)">
      <circle r="12.7234" clip-path="url(#clipPath2)" cx="388.5" cy="191.876" stroke="none"/>
      <circle fill="none" r="12.7234" clip-path="url(#clipPath2)" cx="388.5" cy="191.876" stroke="black"/>
      <text x="384.9961" y="196.5899" clip-path="url(#clipPath2)" fill="black" font-family="sans-serif" stroke="none" xml:space="preserve">+</text>
    </g>
    <g fill="url(#linearGradient14)" stroke-miterlimit="1.45" transform="matrix(1,0,0,1,-177,94)" stroke-linecap="butt" stroke="url(#linearGradient14)">
      <circle r="12.7234" clip-path="url(#clipPath2)" cx="388.5" cy="565.55" stroke="none"/>
      <circle fill="none" r="12.7234" clip-path="url(#clipPath2)" cx="388.5" cy="565.55" stroke="black"/>
      <text x="384.9961" y="570.2639" clip-path="url(#clipPath2)" fill="black" font-family="sans-serif" stroke="none" xml:space="preserve">+</text>
    </g>
    <g fill="url(#linearGradient15)" stroke-miterlimit="1.45" transform="matrix(1,0,0,1,-177,94)" stroke-linecap="butt" stroke="url(#linearGradient15)">
      <circle r="12.7234" clip-path="url(#clipPath2)" cx="388.5" cy="755.78" stroke="none"/>
      <circle fill="none" r="12.7234" clip-path="url(#clipPath2)" cx="388.5" cy="755.78" stroke="black"/>
      <text x="384.9961" y="760.4938" clip-path="url(#clipPath2)" fill="black" font-family="sans-serif" stroke="none" xml:space="preserve">+</text>
    </g>
    <g fill="rgb(255,204,0)" transform="matrix(1,0,0,1,-177,94)" stroke="rgb(255,204,0)">
      <rect x="318.5" width="30" height="16.0822" y="882.8333" clip-path="url(#clipPath2)" stroke="none"/>
    </g>
    <g stroke-miterlimit="1.45" font-family="sans-serif" transform="matrix(1,0,0,1,-177,94)" stroke-linecap="butt">
      <text x="324.1631" xml:space="preserve" y="895.5883" clip-path="url(#clipPath2)" stroke="none">yes</text>
      <rect fill="none" x="318.5" width="30" height="16.0822" y="882.8333" clip-path="url(#clipPath2)"/>
    </g>
    <g fill="rgb(255,204,0)" transform="matrix(1,0,0,1,-177,94)" stroke="rgb(255,204,0)">
      <rect x="393.5786" width="30" height="16.0822" y="922.8333" clip-path="url(#clipPath2)" stroke="none"/>
    </g>
    <g stroke-miterlimit="1.45" font-family="sans-serif" transform="matrix(1,0,0,1,-177,94)" stroke-linecap="butt">
      <text x="401.9048" xml:space="preserve" y="935.5883" clip-path="url(#clipPath2)" stroke="none">no</text>
      <rect fill="none" x="393.5786" width="30" height="16.0822" y="922.8333" clip-path="url(#clipPath2)"/>
    </g>
    <g fill="rgb(255,204,0)" transform="matrix(1,0,0,1,-177,94)" stroke="rgb(255,204,0)">
      <rect x="398.5" width="30" height="16.0822" y="715.7266" clip-path="url(#clipPath2)" stroke="none"/>
    </g>
    <g stroke-miterlimit="1.45" font-family="sans-serif" transform="matrix(1,0,0,1,-177,94)" stroke-linecap="butt">
      <text x="406.8262" xml:space="preserve" y="728.4816" clip-path="url(#clipPath2)" stroke="none">no</text>
      <rect fill="none" x="398.5" width="30" height="16.0822" y="715.7266" clip-path="url(#clipPath2)"/>
    </g>
    <g fill="rgb(255,204,0)" transform="matrix(1,0,0,1,-177,94)" stroke="rgb(255,204,0)">
      <rect x="428.5" width="30" height="16.0822" y="675.7266" clip-path="url(#clipPath2)" stroke="none"/>
    </g>
    <g stroke-miterlimit="1.45" font-family="sans-serif" transform="matrix(1,0,0,1,-177,94)" stroke-linecap="butt">
      <text x="434.1631" xml:space="preserve" y="688.4816" clip-path="url(#clipPath2)" stroke="none">yes</text>
      <rect fill="none" x="428.5" width="30" height="16.0822" y="675.7266" clip-path="url(#clipPath2)"/>
    </g>
    <g fill="rgb(255,204,0)" transform="matrix(1,0,0,1,-177,94)" stroke="rgb(255,204,0)">
      <rect x="394.8658" width="30" height="16.0822" y="532.7519" clip-path="url(#clipPath2)" stroke="none"/>
    </g>
    <g stroke-miterlimit="1.45" font-family="sans-serif" transform="matrix(1,0,0,1,-177,94)" stroke-linecap="butt">
      <text x="403.192" xml:space="preserve" y="545.5069" clip-path="url(#clipPath2)" stroke="none">no</text>
      <rect fill="none" x="394.8658" width="30" height="16.0822" y="532.7519" clip-path="url(#clipPath2)"/>
    </g>
    <g fill="rgb(255,204,0)" transform="matrix(1,0,0,1,-177,94)" stroke="rgb(255,204,0)">
      <rect x="318.5" width="30" height="16.0822" y="492.6" clip-path="url(#clipPath2)" stroke="none"/>
    </g>
    <g stroke-miterlimit="1.45" font-family="sans-serif" transform="matrix(1,0,0,1,-177,94)" stroke-linecap="butt">
      <text x="324.1631" xml:space="preserve" y="505.355" clip-path="url(#clipPath2)" stroke="none">yes</text>
      <rect fill="none" x="318.5" width="30" height="16.0822" y="492.6" clip-path="url(#clipPath2)"/>
    </g>
    <g fill="rgb(255,204,0)" transform="matrix(1,0,0,1,-177,94)" stroke="rgb(255,204,0)">
      <rect x="393.8255" width="30" height="16.0822" y="344.4192" clip-path="url(#clipPath2)" stroke="none"/>
    </g>
    <g stroke-miterlimit="1.45" font-family="sans-serif" transform="matrix(1,0,0,1,-177,94)" stroke-linecap="butt">
      <text x="402.1517" xml:space="preserve" y="357.1742" clip-path="url(#clipPath2)" stroke="none">no</text>
      <rect fill="none" x="393.8255" width="30" height="16.0822" y="344.4192" clip-path="url(#clipPath2)"/>
    </g>
    <g fill="url(#linearGradient16)" stroke-miterlimit="1.45" transform="matrix(1,0,0,1,-177,94)" stroke-linecap="butt" stroke="url(#linearGradient16)">
      <rect x="348.5" y="-78.252" clip-path="url(#clipPath2)" width="80" rx="20" ry="20" height="40" stroke="none"/>
      <rect x="348.5" y="-78.252" clip-path="url(#clipPath2)" fill="none" width="80" rx="20" ry="20" height="40" stroke="black"/>
      <text x="376.8311" y="-53.5381" clip-path="url(#clipPath2)" fill="black" font-family="sans-serif" stroke="none" xml:space="preserve">start</text>
    </g>
    <g fill="url(#linearGradient17)" stroke-miterlimit="1.45" transform="matrix(1,0,0,1,-177,94)" stroke-linecap="butt" stroke="url(#linearGradient17)">
      <rect x="348.5" y="1118.2301" clip-path="url(#clipPath2)" width="80" rx="20" ry="20" height="40" stroke="none"/>
      <rect x="348.5" y="1118.2301" clip-path="url(#clipPath2)" fill="none" width="80" rx="20" ry="20" height="40" stroke="black"/>
      <text x="377.1592" y="1142.944" clip-path="url(#clipPath2)" fill="black" font-family="sans-serif" stroke="none" xml:space="preserve">stop</text>
    </g>
    <g fill="rgb(255,204,0)" transform="matrix(1,0,0,1,-177,94)" stroke="rgb(255,204,0)">
      <rect x="428.5" width="30" height="16.0822" y="306.1628" clip-path="url(#clipPath2)" stroke="none"/>
    </g>
    <g stroke-miterlimit="1.45" font-family="sans-serif" transform="matrix(1,0,0,1,-177,94)" stroke-linecap="butt">
      <text x="434.1631" xml:space="preserve" y="318.9177" clip-path="url(#clipPath2)" stroke="none">yes</text>
      <rect fill="none" x="428.5" width="30" height="16.0822" y="306.1628" clip-path="url(#clipPath2)"/>
      <path fill="none" d="M388.5 56.4998 L388.5 78.5311" clip-path="url(#clipPath2)"/>
      <path d="M388.5 86.5311 L393.5 74.5311 L388.5 77.5311 L383.5 74.5311 Z" clip-path="url(#clipPath2)" stroke="none"/>
      <path fill="none" d="M388.5 281.0327 L388.5 298.8514" clip-path="url(#clipPath2)"/>
      <path d="M388.5 306.8514 L393.5 294.8514 L388.5 297.8514 L383.5 294.8514 Z" clip-path="url(#clipPath2)" stroke="none"/>
      <path fill="none" d="M388.5 471.5129 L388.5 484.5781" clip-path="url(#clipPath2)"/>
      <path d="M388.5 492.5781 L393.5 480.5781 L388.5 483.5781 L383.5 480.5781 Z" clip-path="url(#clipPath2)" stroke="none"/>
      <path fill="none" d="M388.5 655.4907 L388.5 667.7265" clip-path="url(#clipPath2)"/>
      <path d="M388.5 675.7265 L393.5 663.7265 L388.5 666.7265 L383.5 663.7265 Z" clip-path="url(#clipPath2)" stroke="none"/>
      <path fill="none" d="M388.5 852.8126 L388.5 874.8544" clip-path="url(#clipPath2)"/>
      <path d="M388.5 882.8544 L393.5 870.8544 L388.5 873.8544 L383.5 870.8544 Z" clip-path="url(#clipPath2)" stroke="none"/>
      <path fill="none" d="M388.5 922.8033 L388.5 944.84" clip-path="url(#clipPath2)"/>
      <path d="M388.5 952.84 L393.5 940.84 L388.5 943.84 L383.5 940.84 Z" clip-path="url(#clipPath2)" stroke="none"/>
      <path fill="none" d="M388.5 346.8529 L388.5 359.9597" clip-path="url(#clipPath2)"/>
      <path d="M388.5 367.9597 L393.5 355.9597 L388.5 358.9597 L383.5 355.9597 Z" clip-path="url(#clipPath2)" stroke="none"/>
      <path fill="none" d="M428.4645 695.7266 L555.3652 695.7266 L578.566 695.7266 L578.566 580.8811 L578.566 380.6766 L409.2608 380.6766" clip-path="url(#clipPath2)"/>
      <path d="M401.2608 380.6766 L413.2608 385.6766 L410.2608 380.6766 L413.2608 375.6766 Z" clip-path="url(#clipPath2)" stroke="none"/>
      <path fill="none" d="M388.5 393.4273 L388.5 406.486" clip-path="url(#clipPath2)"/>
      <path d="M388.5 414.486 L393.5 402.486 L388.5 405.486 L383.5 402.486 Z" clip-path="url(#clipPath2)" stroke="none"/>
      <path fill="none" d="M388.5 154.4803 L388.5 171.1308" clip-path="url(#clipPath2)"/>
      <path d="M388.5 179.1308 L393.5 167.1308 L388.5 170.1308 L383.5 167.1308 Z" clip-path="url(#clipPath2)" stroke="none"/>
      <path fill="none" d="M348.4665 512.6 L192.5893 512.6 L192.5893 191.876 L367.7295 191.876" clip-path="url(#clipPath2)"/>
      <path d="M375.7295 191.876 L363.7295 186.876 L366.7295 191.876 L363.7295 196.876 Z" clip-path="url(#clipPath2)" stroke="none"/>
      <path fill="none" d="M388.5 204.5863 L388.5 216.0262" clip-path="url(#clipPath2)"/>
      <path d="M388.5 224.0262 L393.5 212.0262 L388.5 215.0262 L383.5 212.0262 Z" clip-path="url(#clipPath2)" stroke="none"/>
      <path fill="none" d="M388.5 532.5856 L388.5 544.8342" clip-path="url(#clipPath2)"/>
      <path d="M388.5 552.8342 L393.5 540.8342 L388.5 543.8342 L383.5 540.8342 Z" clip-path="url(#clipPath2)" stroke="none"/>
      <path fill="none" d="M348.5432 902.8333 L194.8161 902.8333 L194.8161 565.55 L367.78 565.55" clip-path="url(#clipPath2)"/>
      <path d="M375.78 565.55 L363.78 560.55 L366.78 565.55 L363.78 570.55 Z" clip-path="url(#clipPath2)" stroke="none"/>
      <path fill="none" d="M388.5 578.3021 L388.5 590.5136" clip-path="url(#clipPath2)"/>
      <path d="M388.5 598.5136 L393.5 586.5136 L388.5 589.5136 L383.5 586.5136 Z" clip-path="url(#clipPath2)" stroke="none"/>
      <path fill="none" d="M388.5 715.7542 L388.5 735.0765" clip-path="url(#clipPath2)"/>
      <path d="M388.5 743.0765 L393.5 731.0765 L388.5 734.0765 L383.5 731.0765 Z" clip-path="url(#clipPath2)" stroke="none"/>
      <path fill="none" d="M388.5 1009.8372 L388.5 1057.2449 L581.3294 1057.2449 L581.3294 755.78 L409.258 755.78" clip-path="url(#clipPath2)"/>
      <path d="M401.258 755.78 L413.258 760.78 L410.258 755.78 L413.258 750.78 Z" clip-path="url(#clipPath2)" stroke="none"/>
      <path fill="none" d="M388.5 768.5333 L388.5 787.8066" clip-path="url(#clipPath2)"/>
      <path d="M388.5 795.8066 L393.5 783.8066 L388.5 786.8066 L383.5 783.8066 Z" clip-path="url(#clipPath2)" stroke="none"/>
      <path fill="none" d="M388.5 -38.2473 L388.5 -8.498" clip-path="url(#clipPath2)"/>
      <path d="M388.5 -0.498 L393.5 -12.498 L388.5 -9.498 L383.5 -12.498 Z" clip-path="url(#clipPath2)" stroke="none"/>
      <path fill="none" d="M428.4844 326.8531 L626.3736 326.8531 L626.3736 1089.2599 L388.5 1085.7446 L388.5 1110.215" clip-path="url(#clipPath2)"/>
      <path d="M388.5 1118.215 L393.5 1106.215 L388.5 1109.215 L383.5 1106.215 Z" clip-path="url(#clipPath2)" stroke="none"/>
    </g>
  </g>
</svg>
